HIERARCHY
ROOT Hips
{
	OFFSET 0.000000 0.000000 0.000000
	CHANNELS 6 Xposition Yposition Zposition Xrotation Yrotation Zrotation
	JOINT Spine
	{
		OFFSET 0.000000 0.044490 0.066735
		CHANNELS 3 Xrotation Yrotation Zrotation
		JOINT Spine1
		{
			OFFSET 0.000000 0.015451 0.087628
			CHANNELS 3 Xrotation Yrotation Zrotation
			JOINT Spine2
			{
				OFFSET 0.000000 0.007755 0.088641
				CHANNELS 3 Xrotation Yrotation Zrotation
				JOINT Spine3
				{
					OFFSET 0.000000 0.000000 0.088980
					CHANNELS 3 Xrotation Yrotation Zrotation
					JOINT Neck
					{
						OFFSET 0.000000 -0.033367 0.233572
						CHANNELS 3 Xrotation Yrotation Zrotation
						JOINT Head
						{
							OFFSET 0.000000 -0.021245 0.120488
							CHANNELS 3 Xrotation Yrotation Zrotation
							End Site
							{
								OFFSET 0.000000 0.000000 0.000000
							}
						}
					}
					JOINT RightShoulder
					{
						OFFSET -0.026917 -0.044862 0.145355
						CHANNELS 3 Xrotation Yrotation Zrotation
						JOINT RightArm
						{
							OFFSET -0.133690 -0.000000 0.000000
							CHANNELS 3 Xrotation Yrotation Zrotation
							JOINT RightForeArm
							{
								OFFSET -0.257725 -0.000000 0.000000
								CHANNELS 3 Xrotation Yrotation Zrotation
								JOINT RightHand
								{
									OFFSET -0.216749 -0.000000 0.000000
									CHANNELS 3 Xrotation Yrotation Zrotation
									JOINT RightHandEnd
									{
										OFFSET -0.062518 -0.000000 0.000000
										CHANNELS 3 Xrotation Yrotation Zrotation
										End Site
										{
											OFFSET 0.000000 0.000000 0.000000
										}
									}
									JOINT RightHandThumb1
									{
										OFFSET -0.025007 -0.041679 -0.016672
										CHANNELS 3 Xrotation Yrotation Zrotation
										End Site
										{
											OFFSET 0.000000 0.000000 0.000000
										}
									}
								}
							}
						}
					}
					JOINT LeftShoulder
					{
						OFFSET 0.026917 -0.044862 0.145355
						CHANNELS 3 Xrotation Yrotation Zrotation
						JOINT LeftArm
						{
							OFFSET 0.133690 0.000000 0.000000
							CHANNELS 3 Xrotation Yrotation Zrotation
							JOINT LeftForeArm
							{
								OFFSET 0.257725 0.000000 0.000000
								CHANNELS 3 Xrotation Yrotation Zrotation
								JOINT LeftHand
								{
									OFFSET 0.216749 0.000000 0.000000
									CHANNELS 3 Xrotation Yrotation Zrotation
									JOINT LeftHandEnd
									{
										OFFSET 0.062518 0.000000 0.000000
										CHANNELS 3 Xrotation Yrotation Zrotation
										End Site
										{
											OFFSET 0.000000 0.000000 0.000000
										}
									}
									JOINT LeftHandThumb1
									{
										OFFSET 0.025007 -0.041679 -0.016672
										CHANNELS 3 Xrotation Yrotation Zrotation
										End Site
										{
											OFFSET 0.000000 0.000000 0.000000
										}
									}
								}
							}
						}
					}
				}
			}
		}
	}
	JOINT RightUpLeg
	{
		OFFSET -0.079855 0.000000 -0.023329
		CHANNELS 3 Xrotation Yrotation Zrotation
		JOINT RightLeg
		{
			OFFSET 0.000000 0.000000 -0.366572
			CHANNELS 3 Xrotation Yrotation Zrotation
			JOINT RightFoot
			{
				OFFSET 0.000000 0.000000 -0.363650
				CHANNELS 3 Xrotation Yrotation Zrotation
				JOINT RightToeBase
				{
					OFFSET 0.000000 -0.114715 -0.041753
					CHANNELS 3 Xrotation Yrotation Zrotation
					End Site
					{
						OFFSET 0.000000 0.000000 0.000000
					}
				}
			}
		}
	}
	JOINT LeftUpLeg
	{
		OFFSET 0.079855 0.000000 -0.023329
		CHANNELS 3 Xrotation Yrotation Zrotation
		JOINT LeftLeg
		{
			OFFSET 0.000000 0.000000 -0.366572
			CHANNELS 3 Xrotation Yrotation Zrotation
			JOINT LeftFoot
			{
				OFFSET 0.000000 0.000000 -0.363650
				CHANNELS 3 Xrotation Yrotation Zrotation
				JOINT LeftToeBase
				{
					OFFSET 0.000000 -0.114715 -0.041753
					CHANNELS 3 Xrotation Yrotation Zrotation
					End Site
					{
						OFFSET 0.000000 0.000000 0.000000
					}
				}
			}
		}
	}
}
MOTION
Frames: 13
Frame Time: 0.033333
0.038826 0.022979 0.805939 -1.623100 -1.584900 -179.109600 -1.063700 0.024900 0.156900 -0.891500 -0.346200 -0.077700 0.847400 -0.170900 -1.696900 0.232000 0.291900 -0.393500 0.049900 -1.453500 -1.857600 -3.726600 -0.768000 -0.440900 -1.144900 10.335200 1.055500 -8.069000 -5.536400 -4.608100 0.000000 0.000000 2.731600 1.922500 7.203000 -8.108900 0.000000 0.000000 0.000000 0.000000 0.000000 0.000000 -1.357900 -13.639400 -2.101700 -2.069800 9.984900 15.950300 0.000000 0.000000 -9.374800 0.619500 -1.918000 2.153100 0.000000 0.000000 0.000000 0.000000 0.000000 0.000000 1.551800 2.288500 -9.260200 -3.389000 0.000000 0.000000 -1.840700 -7.189300 -10.125500 -0.019900 0.000000 0.000000 0.207200 -6.390200 27.686500 0.675000 0.000000 0.000000 0.447000 6.749900 3.420900 -0.147700 0.000000 0.000000 
0.038219 0.022873 0.805947 -1.637300 -1.563900 -179.207300 -1.043100 0.043800 0.160000 -0.876500 -0.343000 -0.076700 0.881500 -0.203300 -1.695900 0.229500 0.288800 -0.372900 -0.174900 -1.589100 -1.881800 -4.136300 -0.779600 -0.319200 -1.143100 10.503600 1.108700 -8.227000 -5.718400 -4.723600 0.000000 0.000000 2.670900 2.049900 7.206300 -8.313400 0.000000 0.000000 0.000000 0.000000 0.000000 0.000000 -1.277900 -13.661900 -2.099600 -2.049200 10.161700 16.036100 0.000000 0.000000 -9.270100 0.765000 -2.136500 2.355200 0.000000 0.000000 0.000000 0.000000 0.000000 0.000000 1.498200 2.357800 -9.247100 -3.361900 0.000000 0.000000 -1.808700 -7.225800 -10.058300 0.003800 0.000000 0.000000 0.181100 -6.331800 27.684000 0.725500 0.000000 0.000000 0.386100 6.693900 3.509700 -0.130300 0.000000 0.000000 
0.037216 0.022708 0.805955 -1.675500 -1.522000 -179.374800 -1.023700 0.066900 0.167900 -0.861300 -0.347300 -0.076200 0.898400 -0.221800 -1.669600 0.222000 0.277900 -0.348100 -0.413100 -1.847200 -1.866200 -4.345100 -0.772900 -0.077600 -1.140200 10.699700 1.187500 -8.405400 -5.927800 -4.847900 0.000000 0.000000 2.576500 2.290700 7.538300 -8.782000 0.000000 0.000000 0.000000 0.000000 0.000000 0.000000 -1.212300 -13.667000 -2.103500 -2.247100 10.337800 16.188700 0.000000 0.000000 -9.187100 0.574900 -2.288400 2.506800 0.000000 0.000000 0.000000 0.000000 0.000000 0.000000 1.401900 2.479300 -9.231200 -3.325000 0.000000 0.000000 -1.763900 -7.290900 -9.928200 0.037800 0.000000 0.000000 0.126000 -6.228100 27.649100 0.811700 0.000000 0.000000 0.258800 6.581200 3.693700 -0.071700 0.000000 0.000000 
0.036139 0.022626 0.805967 -1.724600 -1.472100 -179.555900 -1.023600 0.081900 0.178500 -0.858600 -0.365100 -0.074500 0.873700 -0.210500 -1.612500 0.211200 0.261300 -0.334700 -0.497000 -2.107300 -1.783800 -3.840100 -0.785500 0.177500 -1.149900 10.795500 1.272900 -8.430400 -6.001200 -4.907200 0.000000 0.000000 2.509100 2.511300 8.250500 -9.330000 0.000000 0.000000 0.000000 0.000000 0.000000 0.000000 -1.221800 -13.611800 -2.131500 -2.495100 10.419300 16.317200 0.000000 0.000000 -9.192400 0.317500 -2.355600 2.529500 0.000000 0.000000 0.000000 0.000000 0.000000 0.000000 1.310200 2.614300 -9.201400 -3.306900 0.000000 0.000000 -1.722900 -7.369700 -9.793000 0.069200 0.000000 0.000000 0.071600 -6.110100 27.573700 0.898700 0.000000 0.000000 0.111200 6.481900 3.938100 -0.012100 0.000000 0.000000 
0.035161 0.022669 0.805985 -1.775000 -1.425200 -179.710800 -1.049600 0.088500 0.187600 -0.879200 -0.389600 -0.074700 0.841800 -0.186000 -1.537500 0.202400 0.240700 -0.330200 -0.463000 -2.250500 -1.682300 -2.597500 -0.851100 0.317200 -1.160300 10.804900 1.318000 -8.346900 -5.936600 -4.877300 0.000000 0.000000 2.486300 2.589800 8.937900 -9.638000 0.000000 0.000000 0.000000 0.000000 0.000000 0.000000 -1.281600 -13.505200 -2.184300 -2.568500 10.430400 16.348800 0.000000 0.000000 -9.245000 0.451300 -2.368500 2.539800 0.000000 0.000000 0.000000 0.000000 0.000000 0.000000 1.237200 2.738600 -9.148700 -3.305500 0.000000 0.000000 -1.687900 -7.451200 -9.703400 0.103000 0.000000 0.000000 0.024600 -6.000700 27.474500 0.974100 0.000000 0.000000 -0.001000 6.441700 4.191800 -0.007100 0.000000 0.000000 
0.034234 0.022730 0.806003 -1.812600 -1.382400 -179.843400 -1.080300 0.096400 0.195300 -0.910800 -0.412700 -0.075600 0.837900 -0.170000 -1.469700 0.197300 0.226900 -0.328700 -0.412200 -2.263200 -1.636300 -1.189100 -0.957400 0.304500 -1.161400 10.836600 1.312000 -8.318400 -5.870700 -4.804300 0.000000 0.000000 2.489100 2.529400 9.201900 -9.597400 0.000000 0.000000 0.000000 0.000000 0.000000 0.000000 -1.328400 -13.426500 -2.233600 -2.601400 10.433300 16.321400 0.000000 0.000000 -9.246300 0.661600 -2.445600 2.531500 0.000000 0.000000 0.000000 0.000000 0.000000 0.000000 1.173700 2.854900 -9.095100 -3.293400 0.000000 0.000000 -1.650700 -7.526900 -9.639600 0.136700 0.000000 0.000000 -0.017600 -5.899900 27.376400 1.051100 0.000000 0.000000 -0.078500 6.410800 4.423400 -0.046300 0.000000 0.000000 
0.033322 0.022697 0.806011 -1.834600 -1.338400 -179.965500 -1.096900 0.111300 0.203100 -0.931800 -0.427700 -0.076500 0.849600 -0.163000 -1.425200 0.194500 0.226400 -0.330900 -0.329100 -2.186700 -1.660200 -0.235200 -1.062100 0.178100 -1.167700 10.915500 1.290400 -8.354200 -5.863700 -4.729500 0.000000 0.000000 2.493800 2.421700 9.135600 -9.374300 0.000000 0.000000 0.000000 0.000000 0.000000 0.000000 -1.346200 -13.421900 -2.251200 -2.828700 10.429900 16.324800 0.000000 0.000000 -9.185500 0.132800 -3.011300 2.187000 0.000000 0.000000 0.000000 0.000000 0.000000 0.000000 1.103700 2.971400 -9.082200 -3.249100 0.000000 0.000000 -1.615700 -7.584600 -9.548000 0.144700 0.000000 0.000000 -0.065100 -5.802000 27.281300 1.144900 0.000000 0.000000 -0.162300 6.334800 4.634000 -0.073100 0.000000 0.000000 
0.032512 0.022591 0.806016 -1.836500 -1.299000 179.924700 -1.092100 0.128400 0.211400 -0.931600 -0.435000 -0.076500 0.851300 -0.158400 -1.404000 0.193600 0.237200 -0.338700 -0.183300 -2.056400 -1.703600 0.151300 -1.138900 0.004300 -1.191000 10.975500 1.295800 -8.335100 -5.852200 -4.673800 0.000000 0.000000 2.483900 2.334500 9.102900 -9.152900 0.000000 0.000000 0.000000 0.000000 0.000000 0.000000 -1.334800 -13.452900 -2.220100 -3.107500 10.400400 16.366100 0.000000 0.000000 -9.157100 -1.177600 -4.501700 1.233200 0.000000 0.000000 0.000000 0.000000 0.000000 0.000000 1.042700 3.075500 -9.116600 -3.185400 0.000000 0.000000 -1.590500 -7.621100 -9.418800 0.126800 0.000000 0.000000 -0.106000 -5.719800 27.202900 1.253900 0.000000 0.000000 -0.267000 6.253500 4.815300 -0.074200 0.000000 0.000000 
0.031854 0.022451 0.806039 -1.837400 -1.273000 179.826500 -1.081700 0.139900 0.218000 -0.925000 -0.437600 -0.075900 0.846500 -0.156000 -1.386800 0.195000 0.248300 -0.343600 -0.067200 -1.895600 -1.717400 0.322200 -1.181600 -0.153400 -1.196700 10.985200 1.314200 -8.261700 -5.786800 -4.642300 0.000000 0.000000 2.445000 2.280400 9.209900 -8.981100 0.000000 0.000000 0.000000 0.000000 0.000000 0.000000 -1.270000 -13.455700 -2.146400 -3.131300 10.344900 16.369700 0.000000 0.000000 -9.214200 -2.377700 -6.654900 -0.055100 0.000000 0.000000 0.000000 0.000000 0.000000 0.000000 0.984200 3.154100 -9.170300 -3.125000 0.000000 0.000000 -1.566700 -7.652000 -9.277900 0.124800 0.000000 0.000000 -0.155400 -5.668600 27.165400 1.381300 0.000000 0.000000 -0.371600 6.220200 4.950700 -0.076100 0.000000 0.000000 
0.031290 0.022283 0.806061 -1.855800 -1.257000 179.735200 -1.080100 0.144900 0.224200 -0.926700 -0.440800 -0.074500 0.846500 -0.154700 -1.355400 0.195400 0.250700 -0.338900 -0.068500 -1.712100 -1.694600 0.593800 -1.203300 -0.266100 -1.150800 10.988900 1.303000 -8.242000 -5.709300 -4.634000 0.000000 0.000000 2.392500 2.254300 9.279500 -8.864700 0.000000 0.000000 0.000000 0.000000 0.000000 0.000000 -1.166500 -13.435400 -2.076600 -2.951800 10.272500 16.310100 0.000000 0.000000 -9.295400 -2.823100 -8.513600 -0.957200 0.000000 0.000000 0.000000 0.000000 0.000000 0.000000 0.916300 3.214500 -9.221000 -3.086100 0.000000 0.000000 -1.528100 -7.695900 -9.145400 0.152100 0.000000 0.000000 -0.235700 -5.640400 27.162100 1.530200 0.000000 0.000000 -0.466900 6.189100 5.042700 -0.084100 0.000000 0.000000 
0.030752 0.022080 0.806061 -1.893200 -1.240200 179.661500 -1.091700 0.148400 0.231600 -0.936300 -0.446200 -0.073100 0.841800 -0.150300 -1.317700 0.192300 0.246700 -0.331400 -0.123200 -1.502300 -1.647800 0.951200 -1.224900 -0.350800 -1.087700 11.014500 1.267400 -8.275900 -5.670700 -4.641400 0.000000 0.000000 2.365300 2.241200 9.221900 -8.817400 0.000000 0.000000 0.000000 0.000000 0.000000 0.000000 -1.104000 -13.451400 -2.069600 -2.857400 10.202400 16.254100 0.000000 0.000000 -9.336500 -2.718900 -9.223900 -1.090700 0.000000 0.000000 0.000000 0.000000 0.000000 0.000000 0.843200 3.271200 -9.272200 -3.076400 0.000000 0.000000 -1.477400 -7.753000 -9.031200 0.175000 0.000000 0.000000 -0.347900 -5.614400 27.151000 1.685500 0.000000 0.000000 -0.563900 6.090000 5.112600 -0.075800 0.000000 0.000000 
0.030236 0.021892 0.806049 -1.924000 -1.216500 179.621200 -1.107200 0.157600 0.238600 -0.945300 -0.452300 -0.073000 0.828600 -0.145100 -1.298100 0.188800 0.245800 -0.332800 -0.126900 -1.285700 -1.585700 1.239300 -1.249000 -0.420900 -1.068600 11.039100 1.257100 -8.269700 -5.665900 -4.656200 0.000000 0.000000 2.370500 2.227300 9.101000 -8.792800 0.000000 0.000000 0.000000 0.000000 0.000000 0.000000 -1.120400 -13.526300 -2.123600 -2.884200 10.174200 16.233400 0.000000 0.000000 -9.336900 -2.489000 -8.728900 -0.687400 0.000000 0.000000 0.000000 0.000000 0.000000 0.000000 0.795300 3.331900 -9.308400 -3.088200 0.000000 0.000000 -1.441100 -7.812200 -8.966900 0.185600 0.000000 0.000000 -0.443900 -5.574700 27.112000 1.806400 0.000000 0.000000 -0.651400 5.970900 5.174200 -0.056900 0.000000 0.000000 
0.029759 0.021763 0.806059 -1.924600 -1.194400 179.604600 -1.114500 0.168500 0.242300 -0.952100 -0.457300 -0.073800 0.826700 -0.145300 -1.303300 0.189900 0.248600 -0.341400 -0.088100 -1.111500 -1.505400 1.440900 -1.257800 -0.447000 -1.088100 11.051700 1.288600 -8.226100 -5.676700 -4.667200 0.000000 0.000000 2.372500 2.214800 8.949700 -8.729300 0.000000 0.000000 0.000000 0.000000 0.000000 0.000000 -1.164000 -13.618400 -2.183700 -2.846000 10.217500 16.207900 0.000000 0.000000 -9.306600 -2.155100 -7.641600 -0.147100 0.000000 0.000000 0.000000 0.000000 0.000000 0.000000 0.786300 3.389800 -9.312100 -3.098800 0.000000 0.000000 -1.431300 -7.868000 -8.956900 0.219000 0.000000 0.000000 -0.477600 -5.526900 27.083300 1.865900 0.000000 0.000000 -0.701900 5.930700 5.215400 -0.053600 0.000000 0.000000 
